<?xml version="1.0" encoding="UTF-8" standalone="no"?>
<!-- Created with Inkscape (http://www.inkscape.org/) -->

<svg
   width="31.99724mm"
   height="31.99724mm"
   viewBox="0 0 31.99724 31.99724"
   version="1.1"
   id="svg1"
   xmlns="http://www.w3.org/2000/svg"
   xmlns:svg="http://www.w3.org/2000/svg">
  <defs
     id="defs1" />
  <g
     id="layer1"
     transform="translate(-49.038954,-118.19645)">
    <circle
       id="path2"
       cx="-134.19507"
       cy="65.037575"
       r="15.998621"
       style="fill:#ede9fe;fill-opacity:1;stroke-width:0.282891"
       transform="rotate(-90)" />
  </g>
  <g
     id="g2"
     transform="matrix(1.5516444,0,0,1.5516444,-173.44287,-191.72108)"
     style="fill:#1e1b4b;fill-opacity:1">
    <path
       style="font-size:10.5833px;line-height:1.25;font-family:'Jet Airliner';-inkscape-font-specification:'Jet Airliner';fill:#1e1b4b;fill-opacity:1;stroke-width:0.350964"
       d="m 123.84485,137.473 c 0.77212,-3.7483 4.28175,-9.43391 5.44696,-10.58507 -0.26674,-0.12641 -0.70194,-0.1825 -1.17924,-0.14039 -0.47731,0.0561 -0.94058,0.26674 -1.30559,0.60366 -1.61443,1.47406 -3.36925,3.60791 -4.7731,5.61542 0.29481,-1.78289 0.77212,-3.69214 1.08097,-4.85733 0.1825,-0.47732 0.2948,-0.87041 0.32288,-1.15116 0,0 0,0 0,0 v 0 c 0.014,-0.15444 0,-0.28078 -0.0281,-0.36501 -0.18249,-0.35096 -0.96865,-0.37904 -2.04962,-0.19654 0.12628,0.51943 1.1652,2.48483 -3.86059,9.40583 -1.38983,1.89519 -2.33041,0.0561 -2.33041,0.0561 0,0 -1.96539,2.77963 -1.37578,3.39734 1.51616,1.55827 5.54523,-3.90272 7.88967,-8.1564 -0.36501,1.26347 -0.64577,2.55501 -0.85635,3.66405 -1.05289,1.67058 -1.68464,3.03234 -1.55828,3.43945 0.11235,0.37904 0.88443,0.51942 1.96539,0.51942 -0.0422,-0.49134 -0.37904,-3.2429 4.08521,-8.35293 -2.09173,4.1133 -4.01501,10.47276 -1.71269,10.8518 1.48808,0.23865 2.54097,-1.61443 2.54097,-1.61443 0,0 -2.77964,0.18249 -2.30232,-2.13387 z"
       id="text1"
       aria-label="M" />
  </g>
</svg>
